<?xml version="1.0" encoding="UTF-8" standalone="no"?>
<!-- Created with Inkscape (http://www.inkscape.org/) -->

<svg
   width="1000"
   height="1000"
   viewBox="0 0 264.58333 264.58333"
   version="1.1"
   id="svg5"
   inkscape:version="1.2.2 (732a01da63, 2022-12-09)"
   sodipodi:docname="vanamo_logo_small.svg"
   inkscape:export-filename="..\Documents\Ohjelmointi\Dataorchid\Biflow.Ui\wwwroot\images\vanamo.svg"
   inkscape:export-xdpi="96"
   inkscape:export-ydpi="96"
   xmlns:inkscape="http://www.inkscape.org/namespaces/inkscape"
   xmlns:sodipodi="http://sodipodi.sourceforge.net/DTD/sodipodi-0.dtd"
   xmlns="http://www.w3.org/2000/svg"
   xmlns:svg="http://www.w3.org/2000/svg">
  <sodipodi:namedview
     id="namedview7"
     pagecolor="#e5e5e5"
     bordercolor="#000000"
     borderopacity="0.25"
     inkscape:showpageshadow="2"
     inkscape:pageopacity="0"
     inkscape:pagecheckerboard="0"
     inkscape:deskcolor="#d1d1d1"
     inkscape:document-units="px"
     showgrid="true"
     inkscape:zoom="0.26110523"
     inkscape:cx="-160.85469"
     inkscape:cy="758.31495"
     inkscape:window-width="2880"
     inkscape:window-height="1676"
     inkscape:window-x="-12"
     inkscape:window-y="-12"
     inkscape:window-maximized="1"
     inkscape:current-layer="layer1">
    <inkscape:grid
       type="xygrid"
       id="grid9"
       empspacing="10"
       spacingx="2.6458333"
       spacingy="2.6458333"
       visible="true" />
  </sodipodi:namedview>
  <defs
     id="defs2" />
  <g
     inkscape:label="Taso 1"
     inkscape:groupmode="layer"
     id="layer1">
    <circle
       style="fill:#83afe4;fill-opacity:1;stroke:none;stroke-width:9.26042;stroke-dasharray:none"
       id="path2358"
       cx="132.29167"
       cy="132.29167"
       r="132.29167" />
    <circle
       style="fill:#b3cbed;fill-opacity:1;stroke:none;stroke-width:14.5084;stroke-dasharray:none"
       id="path4590"
       cx="169.74059"
       cy="116.74739"
       r="82.90551" />
    <a
       id="a1298-2"
       transform="matrix(1.1806063,0.42970554,-0.42970554,1.1806063,-46.85803,-37.794146)"
       style="fill:#ffffff;fill-opacity:1;stroke:none;stroke-width:2.64583;stroke-dasharray:none;stroke-opacity:1" />
    <path
       style="fill:none;fill-opacity:1;stroke:#006e66;stroke-width:12.7349;stroke-linecap:round;stroke-dasharray:none;stroke-opacity:1"
       d="M 68.791666,224.89583 69.178877,85.275336 c 0.08241,-29.714675 0,-63.674553 38.204723,-63.674553 21.22483,0 29.71478,25.469822 29.71478,25.469822"
       id="path1340-8"
       sodipodi:nodetypes="cssc" />
    <circle
       style="fill:#007e73;fill-opacity:1;stroke:#006e66;stroke-width:4.10709;stroke-linecap:round;stroke-dasharray:none;stroke-opacity:1;paint-order:fill markers stroke"
       id="path366-0"
       cx="138.79663"
       cy="49.617561"
       r="10.514164" />
    <a
       id="a1298-2-7"
       transform="matrix(1.1806063,-0.42970554,0.42970554,1.1806063,40.058872,7.5362142)"
       style="fill:#ffffff;fill-opacity:1;stroke:none;stroke-width:2.64583;stroke-dasharray:none;stroke-opacity:1" />
    <path
       style="fill:#009a8e;fill-opacity:1;stroke:#006e66;stroke-width:5.54872;stroke-dasharray:none;stroke-opacity:1"
       d="m 68.35535,228.98513 c 0,0 25.893966,-61.83785 109.9738,-24.63974 0,0 -26.16484,74.54552 -109.9738,24.63974 z"
       id="path25409-2"
       sodipodi:nodetypes="csc" />
    <path
       style="fill:#007e73;fill-opacity:1;stroke:#006e66;stroke-width:5.54872;stroke-linecap:butt;stroke-linejoin:bevel;stroke-dasharray:none;stroke-opacity:1"
       d="m 68.192575,227.66757 c 0,0 8.882159,9.55652 110.136575,-23.32218 0,0 -25.89768,76.08026 -110.136575,23.32218 z"
       id="path25409-0-0"
       sodipodi:nodetypes="csc" />
    <a
       id="a1298-84-6"
       transform="matrix(-1.4831453,0,0,1.4831453,-31.433666,115.34744)"
       style="fill:#ffffff;fill-opacity:1;stroke:none;stroke-width:2.64583;stroke-dasharray:none;stroke-opacity:1">
      <path
         style="fill:#ffffff;fill-opacity:1;stroke:none;stroke-width:2.64583;stroke-dasharray:none;stroke-opacity:1"
         d="m -109.45301,33.963552 c 0,0 -2.8827,-18.860342 -0.96951,-35.4843336 1.65969,-14.4213264 8.99584,-28.5749994 -9.5307,-36.4399634 -18.56949,-7.883198 -23.67441,5.795546 -33.63221,16.312769 -11.50494,12.151281 -27.80577,22.0662036 -27.80577,22.0662036 21.58146,10.0635984 31.80664,-5.6037966 31.80664,-5.6037966 0,0 -7.82724,16.785573 4.16246,22.37646 11.98969,5.590887 19.81693,-11.1946854 19.81693,-11.1946854 0,0 -5.20735,17.7727684 16.15216,27.9673464 z"
         id="path1295-0-8"
         sodipodi:nodetypes="csssscscc" />
    </a>
  </g>
</svg>
