<?xml version="1.0" encoding="UTF-8" standalone="no"?>
<!-- Created with Inkscape (http://www.inkscape.org/) -->

<svg
   width="1000.0001"
   height="1000.0001"
   viewBox="0 0 264.58333 264.58333"
   version="1.1"
   id="svg5"
   xmlns="http://www.w3.org/2000/svg"
   xmlns:svg="http://www.w3.org/2000/svg">
  <defs
     id="defs2" />
  <g
     id="layer1">
    <circle
       style="fill:#83afe4;fill-opacity:1;stroke:none;stroke-width:9.26042;stroke-dasharray:none"
       id="path2358"
       cx="132.29167"
       cy="132.29167"
       r="132.29167" />
    <circle
       style="fill:#b3cbed;fill-opacity:1;stroke:none;stroke-width:14.5084;stroke-dasharray:none"
       id="path4590"
       cx="172.38638"
       cy="116.74739"
       r="82.90551" />
    <path
       style="opacity:1;fill:none;fill-opacity:1;stroke:#006e66;stroke-width:7.9375;stroke-linecap:round;stroke-dasharray:none;stroke-opacity:1"
       d="M 132.29166,216.95833 V 79.374999 c 0,0 0,-52.916666 -31.74999,-52.916666 -34.395838,0 -34.395838,42.333333 -34.395838,42.333333"
       id="path1340" />
    <a
       id="a1298"
       transform="translate(2.9999999e-7,15.768909)"
       style="fill:#ffffff;fill-opacity:1;stroke:none;stroke-width:2.64583;stroke-dasharray:none;stroke-opacity:1">
      <path
         style="fill:#ffffff;fill-opacity:1;stroke:none;stroke-width:2.64583;stroke-dasharray:none;stroke-opacity:1"
         d="m 105.68757,106.04584 c 0,0 13.37493,-52.915763 -39.767184,-53.022923 -52.691219,-0.106251 -39.462053,52.810413 -39.462053,52.810413 23.8125,0 23.8125,-15.874998 23.8125,-15.874998 0,0 2.645833,15.874998 15.874999,15.874998 13.229167,0 15.875,-15.874998 15.875,-15.874998 0,0 0,15.874998 23.666738,16.087508 z"
         id="path1295" />
    </a>
    <path
       style="fill:none;stroke:#ffffff;stroke-width:1.32292;stroke-linejoin:bevel;stroke-dasharray:none"
       d="m 58.208328,103.1875 c 0.02054,-0.46637 0,13.22917 -7.9375,23.8125"
       id="path496" />
    <path
       style="fill:none;stroke:#ffffff;stroke-width:1.32292;stroke-linejoin:bevel;stroke-dasharray:none"
       d="m 206.375,105.83333 c -0.0205,-0.46637 0,13.22917 7.9375,23.8125"
       id="path496-0" />
    <a
       id="a1298-2"
       transform="translate(-5e-7,23.8125)"
       style="fill:#ffffff;fill-opacity:1;stroke:none;stroke-width:2.64583;stroke-dasharray:none;stroke-opacity:1">
      <path
         style="fill:#bde2fd;fill-opacity:1;stroke:none;stroke-width:2.64583;stroke-dasharray:none;stroke-opacity:1"
         d="M 65.920387,44.979326 C 13.229168,44.873075 26.458334,97.789739 26.458334,97.789739 c 23.8125,0 23.8125,-15.874998 23.8125,-15.874998 0,0 2.645832,15.874998 15.874999,15.874998 0,0 -31.749999,-31.749998 -0.225446,-52.810413 z"
         id="path1295-2" />
    </a>
    <path
       style="fill:none;fill-opacity:1;stroke:#006e66;stroke-width:7.9375;stroke-linecap:round;stroke-dasharray:none;stroke-opacity:1"
       d="M 132.29166,216.95833 V 79.374999 c 0,0 0,-52.916666 31.75,-52.916666 34.39584,0 34.39584,42.333333 34.39584,42.333333"
       id="path1340-8" />
    <a
       id="a1298-8"
       transform="translate(132.29167,15.875)"
       style="fill:#ffffff;fill-opacity:1;stroke:none;stroke-width:2.64583;stroke-dasharray:none;stroke-opacity:1">
      <path
         style="fill:#ffffff;fill-opacity:1;stroke:none;stroke-width:2.64583;stroke-dasharray:none;stroke-opacity:1"
         d="m 105.68757,106.04584 c 0,0 13.37493,-53.129174 -39.767184,-53.022923 -52.691216,0.105349 -39.462053,52.810413 -39.462053,52.810413 23.8125,0 23.8125,-15.874998 23.8125,-15.874998 0,0 2.645833,15.874998 15.874999,15.874998 13.229167,0 15.875,-15.874998 15.875,-15.874998 0,0 0,15.874998 23.666738,16.087508 z"
         id="path1295-3" />
    </a>
    <circle
       style="fill:#ffffff;fill-opacity:1;stroke:none;stroke-width:5.4019;stroke-dasharray:none;stroke-opacity:1"
       id="path17167"
       cx="227.54166"
       cy="151.47395"
       r="4.6302085" />
    <circle
       style="fill:#ffffff;fill-opacity:1;stroke:none;stroke-width:5.4019;stroke-dasharray:none;stroke-opacity:1"
       id="path17167-8"
       cx="174.625"
       cy="140.89062"
       r="4.6302085" />
    <circle
       style="fill:#ffffff;fill-opacity:1;stroke:none;stroke-width:5.4019;stroke-dasharray:none;stroke-opacity:1"
       id="path17167-8-7"
       cx="93.265625"
       cy="148.82812"
       r="4.6302085" />
    <circle
       style="fill:#ffffff;fill-opacity:1;stroke:none;stroke-width:5.4019;stroke-dasharray:none;stroke-opacity:1"
       id="path17167-5"
       cx="209.02083"
       cy="167.34895"
       r="4.6302085" />
    <circle
       style="fill:#ffffff;fill-opacity:1;stroke:none;stroke-width:3.0868;stroke-dasharray:none;stroke-opacity:1"
       id="path17167-1"
       cx="50.270828"
       cy="127"
       r="2.6458368" />
    <circle
       style="fill:#ffffff;fill-opacity:1;stroke:none;stroke-width:3.0868;stroke-dasharray:none;stroke-opacity:1"
       id="path17167-1-4"
       cx="214.3125"
       cy="129.64583"
       r="2.6458368" />
    <circle
       style="fill:#ffffff;fill-opacity:1;stroke:none;stroke-width:5.4019;stroke-dasharray:none;stroke-opacity:1"
       id="path17167-6"
       cx="44.317707"
       cy="153.45833"
       r="4.6302085" />
    <circle
       style="fill:#ffffff;fill-opacity:1;stroke:none;stroke-width:5.4019;stroke-dasharray:none;stroke-opacity:1"
       id="path17167-6-2"
       cx="79.375"
       cy="167.34895"
       r="4.6302085" />
    <a
       id="a1298-2-7"
       transform="translate(132.29167,15.875002)"
       style="fill:#ffffff;fill-opacity:1;stroke:none;stroke-width:2.64583;stroke-dasharray:none;stroke-opacity:1">
      <path
         style="fill:#bde2fd;fill-opacity:1;stroke:none;stroke-width:2.64583;stroke-dasharray:none;stroke-opacity:1"
         d="M 65.920386,53.022917 C 13.229167,52.916666 26.458333,105.83333 26.458333,105.83333 c 23.8125,0 23.8125,-15.874998 23.8125,-15.874998 0,0 2.645832,15.874998 15.874999,15.874998 0,0 -31.749999,-31.749998 -0.225446,-52.810413 z"
         id="path1295-2-8" />
    </a>
    <path
       style="fill:#009a8e;fill-opacity:1;stroke:#006e66;stroke-width:3.96875;stroke-dasharray:none;stroke-opacity:1"
       d="m 131.43277,222.6594 c 0,0 -18.52084,-44.22992 -78.516104,-18.40103 0,0 18.017927,53.15049 78.516104,18.40103 z"
       id="path25409" />
    <path
       style="fill:#007e73;fill-opacity:1;stroke:#006e66;stroke-width:3.96875;stroke-linecap:butt;stroke-linejoin:bevel;stroke-dasharray:none;stroke-opacity:1"
       d="m 131.56399,221.71896 c 0,0 -6.60276,7.19077 -78.647324,-17.46059 0,0 17.809616,54.24509 78.647324,17.46059 z"
       id="path25409-0" />
    <path
       style="fill:#009a8e;fill-opacity:1;stroke:#006e66;stroke-width:3.96875;stroke-dasharray:none;stroke-opacity:1"
       d="m 133.00718,221.8821 c 0,0 18.52084,-44.22992 78.65948,-17.62373 0,0 -18.71457,53.31917 -78.65948,17.62373 z"
       id="path25409-2" />
    <path
       style="fill:#007e73;fill-opacity:1;stroke:#006e66;stroke-width:3.96875;stroke-linecap:butt;stroke-linejoin:bevel;stroke-dasharray:none;stroke-opacity:1"
       d="m 132.89075,220.93971 c 0,0 6.35302,6.83536 78.77591,-16.68134 0,0 -18.52348,54.4169 -78.77591,16.68134 z"
       id="path25409-0-0" />
  </g>
</svg>
