<?xml version="1.0" encoding="UTF-8" standalone="no"?>
<!-- Created with Inkscape (http://www.inkscape.org/) -->

<svg
   width="810.70355"
   height="786.07501"
   viewBox="0 0 214.49864 207.98233"
   version="1.1"
   id="svg5"
   xmlns="http://www.w3.org/2000/svg"
   xmlns:svg="http://www.w3.org/2000/svg">
  <defs
     id="defs2" />
  <g
     id="layer1"
     transform="translate(-24.980038,-22.489581)">
    <path
       style="opacity:1;fill:none;fill-opacity:1;stroke:#ffffff;stroke-width:7.9375;stroke-linecap:round;stroke-dasharray:none;stroke-opacity:1"
       d="M 132.29166,211.66666 V 79.374999 c 0,0 0,-52.916666 -31.74999,-52.916666 -34.395838,0 -34.395838,42.333333 -34.395838,42.333333"
       id="path1340" />
    <a
       id="a1298"
       transform="translate(2.9999999e-7,15.768909)"
       style="fill:#ffffff;fill-opacity:1;stroke:none;stroke-width:2.64583;stroke-dasharray:none;stroke-opacity:1">
      <path
         style="fill:#ffffff;fill-opacity:1;stroke:none;stroke-width:2.64583;stroke-dasharray:none;stroke-opacity:1"
         d="m 105.68757,106.04584 c 0,0 13.37493,-52.915763 -39.767184,-53.022923 -52.691219,-0.106251 -39.462053,52.810413 -39.462053,52.810413 23.8125,0 23.8125,-15.874998 23.8125,-15.874998 0,0 2.645833,15.874998 15.874999,15.874998 13.229167,0 15.875,-15.874998 15.875,-15.874998 0,0 0,15.874998 23.666738,16.087508 z"
         id="path1295" />
    </a>
    <path
       style="fill:none;fill-opacity:1;stroke:#ffffff;stroke-width:7.9375;stroke-linecap:round;stroke-dasharray:none;stroke-opacity:1"
       d="M 132.29166,211.66666 V 79.374999 c 0,0 0,-52.916666 31.75,-52.916666 34.39584,0 34.39584,42.333333 34.39584,42.333333"
       id="path1340-8" />
    <a
       id="a1298-8"
       transform="translate(132.29167,15.875)"
       style="fill:#ffffff;fill-opacity:1;stroke:none;stroke-width:2.64583;stroke-dasharray:none;stroke-opacity:1">
      <path
         style="fill:#ffffff;fill-opacity:1;stroke:none;stroke-width:2.64583;stroke-dasharray:none;stroke-opacity:1"
         d="m 105.68757,106.04584 c 0,0 13.37493,-53.129174 -39.767184,-53.022923 -52.691216,0.105349 -39.462053,52.810413 -39.462053,52.810413 23.8125,0 23.8125,-15.874998 23.8125,-15.874998 0,0 2.645833,15.874998 15.874999,15.874998 13.229167,0 15.875,-15.874998 15.875,-15.874998 0,0 0,15.874998 23.666738,16.087508 z"
         id="path1295-3" />
    </a>
    <path
       style="fill:#ffffff;fill-opacity:1;stroke:#ffffff;stroke-width:3.96875;stroke-dasharray:none;stroke-opacity:1"
       d="m 131.43277,216.83853 c 0,0 -38.828605,-44.85937 -98.823872,-19.03048 0,0 38.325695,53.77994 98.823872,19.03048 z"
       id="path25409" />
    <path
       style="fill:#ffffff;fill-opacity:1;stroke:#ffffff;stroke-width:3.96875;stroke-dasharray:none;stroke-opacity:1"
       d="m 133.00718,216.06123 c 0,0 38.97198,-44.08207 99.11062,-17.47588 0,0 -39.16571,53.17132 -99.11062,17.47588 z"
       id="path25409-2" />
  </g>
</svg>
