<?xml version="1.0" encoding="UTF-8" standalone="no"?>
<!-- Created with Inkscape (http://www.inkscape.org/) -->

<svg
   width="1000"
   height="1000"
   viewBox="0 0 264.58333 264.58333"
   version="1.1"
   id="svg5"
   inkscape:version="1.2.2 (732a01da63, 2022-12-09)"
   sodipodi:docname="vanamo_logo_small.svg"
   inkscape:export-filename="..\Documents\Ohjelmointi\Dataorchid\Biflow.Ui\wwwroot\images\vanamo.svg"
   inkscape:export-xdpi="96"
   inkscape:export-ydpi="96"
   xmlns:inkscape="http://www.inkscape.org/namespaces/inkscape"
   xmlns:sodipodi="http://sodipodi.sourceforge.net/DTD/sodipodi-0.dtd"
   xmlns="http://www.w3.org/2000/svg"
   xmlns:svg="http://www.w3.org/2000/svg">
  <sodipodi:namedview
     id="namedview7"
     pagecolor="#e5e5e5"
     bordercolor="#000000"
     borderopacity="0.25"
     inkscape:showpageshadow="2"
     inkscape:pageopacity="0"
     inkscape:pagecheckerboard="0"
     inkscape:deskcolor="#d1d1d1"
     inkscape:document-units="px"
     showgrid="true"
     inkscape:zoom="0.73851711"
     inkscape:cx="907.22339"
     inkscape:cy="384.55439"
     inkscape:window-width="2880"
     inkscape:window-height="1676"
     inkscape:window-x="-12"
     inkscape:window-y="-12"
     inkscape:window-maximized="1"
     inkscape:current-layer="layer1">
    <inkscape:grid
       type="xygrid"
       id="grid9"
       empspacing="10"
       spacingx="2.6458333"
       spacingy="2.6458333"
       visible="true" />
  </sodipodi:namedview>
  <defs
     id="defs2" />
  <g
     inkscape:label="Taso 1"
     inkscape:groupmode="layer"
     id="layer1">
    <circle
       style="fill:#83afe4;fill-opacity:1;stroke:none;stroke-width:9.26042;stroke-dasharray:none"
       id="path2358"
       cx="132.29167"
       cy="132.29167"
       r="132.29167" />
    <circle
       style="fill:#b3cbed;fill-opacity:1;stroke:none;stroke-width:14.5084;stroke-dasharray:none"
       id="path4590"
       cx="169.74059"
       cy="116.74739"
       r="82.90551" />
    <a
       id="a1298-2"
       transform="matrix(1.1806063,0.42970554,-0.42970554,1.1806063,-46.85803,-37.794146)"
       style="fill:#ffffff;fill-opacity:1;stroke:none;stroke-width:2.64583;stroke-dasharray:none;stroke-opacity:1" />
    <a
       id="a1298-2-7"
       transform="matrix(1.1806063,-0.42970554,0.42970554,1.1806063,40.058872,7.5362142)"
       style="fill:#ffffff;fill-opacity:1;stroke:none;stroke-width:2.64583;stroke-dasharray:none;stroke-opacity:1" />
    <path
       style="fill:none;fill-opacity:1;stroke:#006e66;stroke-width:9.09783;stroke-linecap:round;stroke-dasharray:none;stroke-opacity:1"
       d="M 69.0224,229.88955 V 109.96351 c 0,-49.624594 57.89535,-95.113775 57.89535,-95.113775"
       id="path1340-8-6-6"
       sodipodi:nodetypes="ccc" />
    <ellipse
       style="fill:#007e73;fill-opacity:1;stroke:#006e66;stroke-width:3.62189;stroke-linecap:round;stroke-dasharray:none;stroke-opacity:1;paint-order:fill markers stroke"
       id="path366-0"
       cx="107.73654"
       cy="83.182991"
       rx="8.1140623"
       ry="10.595201"
       transform="rotate(-25)" />
    <path
       style="fill:#009a8e;fill-opacity:1;stroke:#006e66;stroke-width:6.20307;stroke-dasharray:none;stroke-opacity:1"
       d="m 69.204378,231.36249 c 0,0 28.947674,-69.13043 122.943082,-27.54552 0,0 -29.25047,83.33672 -122.943082,27.54552 z"
       id="path25409-2"
       sodipodi:nodetypes="csc" />
    <path
       style="fill:#007e73;fill-opacity:1;stroke:#006e66;stroke-width:6.20307;stroke-linecap:butt;stroke-linejoin:bevel;stroke-dasharray:none;stroke-opacity:1"
       d="m 69.0224,229.88955 c 0,0 9.929635,10.68352 123.12506,-26.07258 0,0 -28.9518,85.05245 -123.12506,26.07258 z"
       id="path25409-0-0"
       sodipodi:nodetypes="csc" />
    <a
       id="a1298-84-6"
       transform="matrix(-1.5629787,0,0,1.5629787,-45.670296,101.58845)"
       style="fill:#ffffff;fill-opacity:1;stroke:none;stroke-width:2.64583;stroke-dasharray:none;stroke-opacity:1">
      <path
         style="fill:#ffffff;fill-opacity:1;stroke:none;stroke-width:2.64583;stroke-dasharray:none;stroke-opacity:1"
         d="m -107.8655,32.376051 c 0,0 -2.8827,-18.860342 -0.96951,-35.4843327 1.65969,-14.4213273 8.995837,-28.5750003 -9.5307,-36.4399643 -18.56949,-7.883198 -23.67441,5.795546 -33.63221,16.312769 -11.50494,12.151281 -27.80577,22.0662046 -27.80577,22.0662046 21.58146,10.0635983 31.80664,-5.6037967 31.80664,-5.6037967 0,0 -7.82724,16.7855721 4.16246,22.3764591 11.98969,5.590887 19.81693,-11.1946845 19.81693,-11.1946845 0,0 -5.20735,17.7727675 16.15216,27.9673455 z"
         id="path1295-0-8"
         sodipodi:nodetypes="csssscscc" />
    </a>
  </g>
</svg>
